<svg id="Capa_1" data-name="Capa 1" xmlns="http://www.w3.org/2000/svg" viewBox="0 0 481.1 481.1"><defs><style>.cls-1{fill:#080408;}.cls-2{fill:#6c2257;}.cls-3{fill:#fbfcfc;}</style></defs><title>logo</title><circle class="cls-1" cx="240.5" cy="240.5" r="240.5"/><path class="cls-2" d="M382.8,435.2c12.9,25,24,50.6,28.9,84.2-14.1-21.9-27.6-37.5-43.9-50.2-34.2-26.8-74-44.5-111.3-66.1-32.2-18.6-55.9-43.3-52.6-83.3,2.2-27.1,16.1-51,30.1-79.1-1.4,27-1.9,50,8,70.8,16.5,34.7,49.4,51.3,80.5,69.9,20.9,12.5,38.5,29,55.1,46.7Z" transform="translate(-54.2 -139.5)"/><path class="cls-2" d="M331.5,315c10.7,11.7,22.2,22.6,31.7,35.1,15.6,20.6,21.9,45.2,26.5,70.2.3,1.5-1.3,3.4-2,5.1-.8-1.2-1.7-2.3-2.5-3.4-18.7-35.5-51-56.7-83.9-75.9-51.6-30.1-66.9-79.7-38.1-131.8,1.7-3,2.6-6.4,6.1-15.2-2,36.7,1.9,66,25.5,88.9l32.1,27Z" transform="translate(-54.2 -139.5)"/><path class="cls-3" d="M237,407.8l32,19.6c-12.3,32.1-24.1,63.1-35.9,93.8h-40C207.9,483,222.3,445.9,237,407.8Z" transform="translate(-54.2 -139.5)"/><path class="cls-3" d="M394.4,521.8c-21.3,1.2-41.3-21-39.5-43.5C362.8,481.6,394.3,516.1,394.4,521.8Z" transform="translate(-54.2 -139.5)"/><path class="cls-3" d="M331.5,315h-4.6l-32.1-27C318.1,282,327.2,295.3,331.5,315Z" transform="translate(-54.2 -139.5)"/><path class="cls-3" d="M385.2,422c.8,1.1,1.7,2.2,2.5,3.4s-.1,2.9-.2,3.9c-1.8,2.2-3.3,4-4.7,5.9l-5.2-7.1Z" transform="translate(-54.2 -139.5)"/></svg>