<?xml version="1.0" encoding="utf-8"?>
<!-- Generator: Adobe Illustrator 23.0.5, SVG Export Plug-In . SVG Version: 6.00 Build 0)  -->
<svg version="1.1" id="Capa_1" xmlns="http://www.w3.org/2000/svg" xmlns:xlink="http://www.w3.org/1999/xlink" x="0px" y="0px"
	 viewBox="0 0 595.28 841.89" style="enable-background:new 0 0 595.28 841.89;" xml:space="preserve">
<style type="text/css">
	.st0{fill:#4A72B2;stroke:#000000;stroke-width:6;stroke-miterlimit:10;}
	.st1{fill:#6C2257;}
	.st2{fill:#FBFCFC;}
</style>
<circle class="st0" cx="294.78" cy="380.03" r="240.55"/>
<path class="st1" d="M382.76,435.16c12.94,25.02,24,50.69,28.98,84.24c-14.13-21.88-27.65-37.46-43.96-50.23
	c-34.21-26.81-73.93-44.46-111.27-66.08c-32.16-18.62-55.94-43.31-52.63-83.24c2.25-27.16,16.14-51.02,30.14-79.2
	c-1.46,27.06-1.88,50.03,7.98,70.8c16.48,34.72,49.43,51.37,80.46,69.93c20.91,12.5,38.53,29.06,55.17,46.7
	C379.33,430.44,381.05,432.8,382.76,435.16z"/>
<path class="st1" d="M331.53,315.03c10.63,11.64,22.19,22.57,31.67,35.07c15.62,20.6,21.91,45.23,26.52,70.23
	c0.28,1.51-1.3,3.36-2.02,5.05c-0.83-1.14-1.65-2.28-2.48-3.41c-18.77-35.47-51-56.7-83.95-75.92
	c-51.62-30.1-66.86-79.62-38.07-131.79c1.65-2.99,2.58-6.36,6.07-15.16c-1.94,36.65,1.91,65.99,25.5,88.91
	c10.63,8.92,21.25,17.85,32.16,27.01C328.24,315.03,329.89,315.03,331.53,315.03z"/>
<path class="st2" d="M236.97,407.83c11.11,6.79,21.58,13.19,32.03,19.57c-12.27,32.08-24.12,63.1-35.85,93.78
	c-12.88,0-25.35,0-40.04,0C207.86,483.05,222.25,445.86,236.97,407.83z"/>
<path class="st2" d="M394.45,521.8c-21.33,1.16-41.33-21.05-39.54-43.54C362.8,481.6,394.32,516.1,394.45,521.8z"/>
<path class="st2" d="M331.53,315.03c-1.64,0-3.29,0-4.59,0c-10.91-9.16-21.54-18.09-32.16-27.01
	C318.07,282,327.19,295.27,331.53,315.03z"/>
</svg>
